PathFileType	4	(X/Y/Z)	1103211_Cal01.trc	
DataRate	CameraRate	NumFrames	NumMarkers	Units	OrigDataRate	OrigDataStartFrame	OrigNumFrames
128	128	8	46	mm	128	212	337
Frame#	Time    CLAV			RSHO			LSHO			C7			T10			RASI			LASI			RPSI			LPSI			LGTR			RGTR			LMFC			RMFC			LANK			RANK			LMMA			RMMA			LHEE			RHEE			LMT5			RMT5			LTOE			RTOE			RELB			RWRA			RWRB			RFIN			LELB			LWRB			LWRA			LFIN			RFM2			LFM2			LKNE			RKNE			RTP2			RTP3			RTA3			LTP2			LTP3			LBHD			RFHD			RBHD			LUPA			LFRA			RFRA
        X1	Y1	Z1	X3	Y3	Z3	X4	Y4	Z4	X5	Y5	Z5	X6	Y6	Z6	X8	Y8	Z8	X9	Y9	Z9	X10	Y10	Z10	X11	Y11	Z11	X12	Y12	Z12	X13	Y13	Z13	X16	Y16	Z16	X17	Y17	Z17	X22	Y22	Z22	X23	Y23	Z23	X24	Y24	Z24	X25	Y25	Z25	X26	Y26	Z26	X27	Y27	Z27	X28	Y28	Z28	X29	Y29	Z29	X30	Y30	Z30	X31	Y31	Z31	X32	Y32	Z32	X33	Y33	Z33	X34	Y34	Z34	X35	Y35	Z35	X36	Y36	Z36	X37	Y37	Z37	X38	Y38	Z38	X39	Y39	Z39	X44	Y44	Z44	X53	Y53	Z53	X58	Y58	Z58	X59	Y59	Z59	X61	Y61	Z61	X62	Y62	Z62	X65	Y65	Z65	X67	Y67	Z67	X68	Y68	Z68	X71	Y71	Z71	X72	Y72	Z72	X73	Y73	Z73	X74	Y74	Z74	X75	Y75	Z75	X77	Y77	Z77
211	0.7	189.17342	1375.11279	-47.91283	88.13501	1424.66309	88.918	87.31491	1433.61621	-192.42125	49.41637	1429.63525	-46.88225	14.74473	1135.23254	-53.14241	178.68446	946.99286	60.46698	174.80826	953.34332	-166.90419	-1.7775	955.79608	-1.75253	-2.96634	954.77136	-99.85674	108.82831	869.11591	-218.34572	108.51947	858.06421	117.77994	62.9565	467.02609	-84.59612	65.6382	471.49725	-16.41133	57.353	91.03491	-207.08321	55.856	87.30752	108.49252	73.27737	98.73296	-121.37746	80.48041	92.79666	24.83453	-14.6954	59.85159	-159.35277	-16.03233	63.22944	60.30818	168.29396	30.78661	-243.67119	165.71748	40.94825	157.66893	212.97899	65.02885	-176.10338	214.52138	65.33488	91.06895	60.84422	1296.83301	347.00095	91.56212	1311.08069	592.15814	57.46092	1246.38928	586.33484	55.35548	1299.75366	666.77252	42.84843	1302.31873	-436.35638	36.69156	1263.97119	-685.69769	68.74966	1325.72424	-679.68433	30.24137	1320.56567	-759.00092	176.1606	717.59564	117.00873	165.78249	719.08374	-218.60832	77.45836	485.31235	-209.93016	88.17451	479.14676	108.2603	54.88261	268.9549	125.11465	54.40086	182.7338	114.17331	107.97319	232.94916	64.54643	65.32416	278.99167	-225.99553	62.09459	193.9106	-216.99104	73.49147	1608.18652	-128.96077	177.40266	1625.92981	38.3923	186.85686	1634.69409	-109.10582	63.27457	1394.27356	-292.94476	25.55533	1307.89148	-584.43054	44.73407	1293.55078	431.12024
212	0.70333	189.18291	1375.12793	-47.92323	88.13052	1424.64368	88.92258	87.28615	1433.59534	-192.43367	49.4111	1429.62988	-46.92146	14.72527	1135.19214	-53.18398	178.79924	946.99158	60.21004	174.74004	953.29517	-167.12077	-1.7153	955.72931	-1.86604	-2.98384	954.7785	-99.94017	108.85593	869.06604	-218.35201	108.57568	858.06256	117.94353	62.95303	467.01352	-84.59514	65.67235	471.448	-16.42308	57.41362	90.94207	-207.08971	55.86697	87.32473	108.49802	73.27229	98.7345	-121.3745	80.49445	92.79988	24.85547	-14.71614	59.84112	-159.37904	-15.91634	62.95987	60.13776	168.29759	30.74943	-243.66539	165.74437	40.93264	157.67459	212.93694	64.99166	-176.1136	214.51808	65.31211	91.07143	60.80147	1296.78027	347.01294	91.52985	1311.02844	592.11743	57.4623	1246.33228	586.33105	55.33484	1299.71912	666.74762	42.84616	1302.30457	-436.36029	36.68549	1263.9939	-685.69287	68.7034	1325.74133	-679.70721	30.17656	1320.62244	-759.03235	176.13622	717.58044	116.9841	165.80196	719.0448	-218.59511	77.42448	485.2605	-209.95686	88.17116	479.15616	108.2494	54.88438	268.93698	125.11121	54.39366	182.70424	114.18651	107.98709	232.91122	64.54233	65.14941	278.98151	-225.94249	62.10002	193.88615	-216.99071	73.87895	1608.11023	-128.82033	177.39622	1625.87964	38.39056	186.8485	1634.67761	-109.10808	63.26672	1394.22705	-292.9386	25.51167	1307.87317	-584.48883	44.67874	1293.49182	431.10858
213	0.70667	189.16679	1375.13452	-47.89729	88.13281	1424.61987	88.91711	87.26712	1433.55127	-192.46227	49.41063	1429.60181	-46.93437	14.72652	1135.17578	-53.18925	178.78432	946.94324	60.19183	174.75478	953.22076	-167.13307	-1.71957	955.73663	-1.90736	-2.97729	954.77515	-99.97575	108.84892	869.06531	-218.35283	108.53242	858.05255	117.96625	62.9948	466.97772	-84.59737	65.64801	471.45175	-16.41139	57.41273	90.91988	-207.08556	55.86185	87.3166	108.4957	73.27617	98.66988	-121.37956	80.52927	92.77563	24.8634	-14.72829	59.82388	-159.40672	-15.89853	62.89748	60.05788	168.25905	30.72171	-243.67595	165.73203	40.92501	157.67261	212.97005	64.97029	-176.12175	214.54301	65.28037	91.03464	60.80449	1296.76001	347.01202	91.48453	1310.96899	592.11029	57.50433	1246.25623	586.2605	55.29277	1299.70728	666.71136	42.81796	1302.27734	-436.37506	36.63509	1264.06067	-685.74634	68.68871	1325.77148	-679.70599	30.16926	1320.63135	-759.03961	176.10246	717.57227	116.98799	165.82957	719.05322	-218.59062	77.43727	485.26093	-209.93492	88.15009	479.15894	108.25662	54.83403	268.93478	125.10744	54.40234	182.67433	114.16599	107.93274	232.90105	64.6042	65.32817	278.89096	-226.00212	62.10889	193.86348	-216.98991	73.90263	1608.10547	-128.7747	177.41521	1625.8501	38.40224	186.85091	1634.65442	-109.10652	63.23743	1394.21362	-292.96606	25.52565	1307.92566	-584.5047	44.64392	1293.46436	431.08246
214	0.71	189.16737	1375.12512	-47.91808	88.08624	1424.59546	88.88757	87.26888	1433.55188	-192.46339	49.41124	1429.59473	-46.93803	14.74126	1135.14514	-53.17448	178.7773	946.93475	60.18105	174.74219	953.21521	-167.13921	-1.72741	955.742	-1.91382	-2.98855	954.76868	-99.97832	108.84714	869.04718	-218.35597	108.50639	858.05823	117.97026	63.00621	466.97485	-84.59807	65.66403	471.40027	-16.42055	57.46381	90.90453	-207.10225	55.86462	87.29981	108.51743	73.27914	98.66401	-121.38106	80.56281	92.76003	24.856	-14.73103	59.80721	-159.37703	-15.90426	62.89504	60.0573	168.46709	30.84473	-243.57979	165.7404	40.89641	157.68008	212.91896	64.92653	-176.09831	214.52342	65.2515	91.04097	60.84839	1296.70374	346.95129	91.45683	1310.92505	592.10089	57.39775	1246.24133	586.2713	55.24191	1299.65344	666.6955	42.78859	1302.28455	-436.41022	36.5741	1264.09717	-685.89288	68.69521	1325.78821	-679.71362	30.17034	1320.6543	-759.03278	176.05089	717.57452	117.01451	165.82385	719.01105	-218.61714	77.4657	485.23993	-209.97417	88.11557	479.13715	108.24698	54.84175	268.91519	125.10322	54.39708	182.67256	114.16589	107.93777	232.88562	64.57922	65.36479	278.89221	-226.00462	62.29532	193.87599	-216.97929	74.04657	1608.42285	-128.19038	177.42036	1625.85046	38.40242	186.81221	1634.63428	-109.07448	63.19209	1394.29541	-292.98529	25.49195	1307.9834	-584.50543	44.67752	1293.44971	431.02173
215	0.71333	189.1678	1375.12463	-47.91991	88.07964	1424.58948	88.87405	87.25861	1433.53723	-192.44044	49.41122	1429.59497	-46.93776	14.71855	1135.15161	-53.22374	178.71764	946.9306	60.22891	174.77223	953.18768	-167.10542	-1.76292	955.73029	-1.93723	-2.98381	954.76178	-100.01207	108.86832	869.02606	-218.35231	108.44992	858.0365	117.96968	63.00363	466.9762	-84.59789	65.63626	471.43106	-16.44774	57.48232	90.88886	-207.10292	55.87663	87.31741	108.52348	73.34764	98.6265	-121.41838	80.55122	92.74186	24.84961	-14.71071	59.80812	-159.39922	-15.90676	62.88326	60.06833	168.53058	30.83526	-243.57695	165.76157	40.88232	157.68291	212.93352	64.94928	-176.07466	214.52049	65.23577	91.06999	60.82225	1296.69019	346.92328	91.46349	1310.901	592.04681	57.43764	1246.19287	586.24414	55.24496	1299.62549	666.67383	42.80446	1302.3064	-436.42633	36.61208	1264.11609	-685.74689	68.67015	1325.84546	-679.75476	30.15256	1320.69482	-759.06921	176.00423	717.56995	117.00226	165.81052	718.99854	-218.61998	77.44003	485.25269	-209.98073	88.11826	479.10309	108.25581	54.8302	268.89856	125.13872	54.38261	182.6499	114.17593	107.94553	232.87555	64.6138	65.34868	278.86078	-225.99229	62.12772	193.82677	-216.98247	73.90227	1608.13062	-128.71321	177.41978	1625.8512	38.40228	186.79311	1634.63379	-109.1274	63.15294	1394.3313	-292.99304	25.49	1307.98462	-584.50458	44.59471	1293.41235	431.06525
216	0.71667	189.16243	1375.09412	-47.91371	88.07529	1424.57837	88.881	87.27501	1433.53857	-192.46376	49.36789	1429.56836	-46.9604	14.68311	1135.16016	-53.24522	178.68788	946.90387	60.25714	174.80809	953.18567	-167.07713	-1.77457	955.71722	-1.95959	-2.96703	954.77277	-100.03465	108.88347	869.02972	-218.35506	108.45151	858.01123	117.93866	62.97583	466.97299	-84.62556	65.65649	471.43115	-16.4529	57.44893	90.89594	-207.0937	55.87709	87.31834	108.52359	73.33205	98.69117	-121.38646	80.57318	92.75985	24.85866	-14.71605	59.78803	-159.36845	-15.89684	62.86287	60.08842	168.496	30.84208	-243.58177	165.73466	40.89368	157.67542	212.92995	64.92015	-176.06413	214.52602	65.24786	91.04376	60.78119	1296.69861	346.94312	91.42526	1310.88672	592.0462	57.44447	1246.16492	586.23993	55.19928	1299.55933	666.6723	42.79826	1302.34912	-436.41901	36.59514	1264.12708	-685.76892	68.65919	1325.86719	-679.75677	30.14825	1320.72668	-759.07251	175.97227	717.57288	117.04408	165.79655	719.02167	-218.62141	77.42073	485.2507	-209.96242	88.03867	479.13586	108.28027	54.78178	268.89377	125.12295	54.38365	182.65208	114.1841	107.88286	232.84311	64.60672	65.33791	278.8765	-226.00667	62.29007	193.879	-217.01656	73.8539	1608.09778	-128.80495	177.40315	1625.8656	38.37862	186.77888	1634.67566	-109.13515	63.26796	1394.24146	-293.00671	25.46082	1307.96399	-584.52087	44.56333	1293.41541	431.06085
217	0.72	189.16777	1375.10095	-47.942	88.02733	1424.57312	88.90303	87.27356	1433.55371	-192.46858	49.36136	1429.58264	-46.94194	14.72165	1135.18213	-53.26833	178.68871	946.92133	60.2339	174.78072	953.21082	-167.09489	-1.78151	955.73523	-1.96019	-2.98647	954.79956	-100.03139	108.86557	869.06708	-218.35555	108.40225	858.03619	117.90178	62.97841	466.98419	-84.63081	65.60286	471.42847	-16.42839	57.42699	90.96966	-207.10384	55.84032	87.31232	108.53806	73.28125	98.6703	-121.37914	80.51707	92.78935	24.86263	-14.70197	59.7813	-159.37865	-15.85931	62.85398	60.14627	168.46765	30.86454	-243.58086	165.75316	40.88786	157.69501	212.9269	64.94652	-176.07082	214.5114	65.28441	91.10341	60.77655	1296.70032	346.94583	91.38528	1310.87671	592.03455	57.38069	1246.16333	586.26611	55.16275	1299.58203	666.6825	42.79578	1302.35107	-436.41779	36.60185	1264.18152	-685.78003	68.66583	1325.90979	-679.7572	30.15327	1320.79114	-759.06848	175.91658	717.59845	117.06143	165.79356	719.00806	-218.62361	77.40625	485.28818	-209.98061	88.02547	479.15338	108.28835	54.776	268.93997	125.13218	54.32642	182.69508	114.19252	107.86145	232.87526	64.61211	65.26819	278.89758	-226.04073	62.1416	193.88821	-216.97813	73.68477	1608.24634	-128.86525	177.43309	1625.88074	38.33264	186.76241	1634.68066	-109.14003	63.2213	1394.24365	-292.98987	25.48473	1308.04333	-584.50812	44.57201	1293.37708	431.03351
218	0.72333	189.10619	1375.0708	-47.94249	88.0202	1424.58032	88.90228	87.26097	1433.5697	-192.47386	49.36133	1429.59009	-46.93578	14.73843	1135.20239	-53.22127	178.68867	946.93433	60.21555	174.7504	953.2384	-167.11507	-1.78944	955.75598	-1.95448	-3.00786	954.80084	-100.0273	108.86981	869.08215	-218.37416	108.37746	858.02356	117.87848	62.91615	467.02081	-84.63594	65.54813	471.47226	-16.41426	57.3905	90.96965	-207.09514	55.84793	87.30949	108.50661	73.27177	98.73073	-121.37605	80.5163	92.81634	24.85313	-14.70075	59.81495	-159.34477	-15.85123	62.83951	60.15691	168.32629	30.77748	-243.64449	165.74326	40.9175	157.68318	212.93053	64.95441	-176.07564	214.48991	65.30627	91.09213	60.76755	1296.71301	346.90692	91.30959	1310.87512	592.03467	57.36334	1246.10864	586.23962	55.14243	1299.52991	666.6734	42.80613	1302.42029	-436.42297	36.66947	1264.1637	-685.81641	68.63058	1325.97449	-679.74524	30.14886	1320.82446	-759.06372	175.85576	717.62415	117.07498	165.81224	719.06104	-218.59557	77.7691	485.34589	-210.07988	87.97906	479.15878	108.31029	54.71162	268.93042	125.15395	54.32787	182.71198	114.1821	107.86395	232.89026	64.62801	65.23286	278.93484	-226.04951	62.08507	193.88736	-216.98793	73.12589	1608.56714	-128.90877	177.46669	1625.91736	38.32414	186.73396	1634.72559	-109.13869	63.22929	1394.2655	-292.99237	25.47969	1308.07715	-584.53369	44.54228	1293.34778	431.04095
